<?xml version="1.0" standalone="no"?>
<!DOCTYPE svg PUBLIC "-//W3C//DTD SVG 20010904//EN"
 "http://www.w3.org/TR/2001/REC-SVG-20010904/DTD/svg10.dtd">
<svg version="1.0" xmlns="http://www.w3.org/2000/svg"
 width="850.000000pt" height="680.000000pt" viewBox="0 0 850.000000 680.000000"
 preserveAspectRatio="xMidYMid meet">

<g transform="translate(0.000000,680.000000) scale(0.100000,-0.100000)"
fill="#000000" stroke="none">
<path d="M4009 5501 c-19 -15 -24 -29 -24 -64 0 -57 25 -87 71 -87 42 0 64 30
64 87 0 73 -58 107 -111 64z m76 -16 c14 -13 25 -33 25 -44 0 -35 -23 -71 -48
-78 -53 -13 -85 84 -42 127 26 26 36 25 65 -5z"/>
<path d="M4172 5458 c-17 -17 -15 -83 2 -97 24 -20 69 -9 86 22 13 24 13 30 0
55 -17 30 -66 42 -88 20z m66 -10 c7 -7 12 -24 12 -38 0 -51 -52 -69 -72 -25
-22 49 25 98 60 63z"/>
<path d="M4312 5375 c1 -49 3 -74 5 -54 4 33 6 35 35 31 38 -6 58 17 58 64 0
40 -18 55 -64 52 l-36 -3 2 -90z m79 62 c12 -28 -3 -77 -25 -77 -33 0 -46 13
-46 44 0 55 50 78 71 33z"/>
<path d="M4445 5453 c-6 -17 7 -33 51 -59 27 -16 8 -37 -28 -30 -18 3 -27 2
-23 -4 11 -18 64 -11 74 9 11 20 -6 41 -41 54 -10 4 -18 14 -18 23 0 12 7 15
30 12 17 -3 30 -1 30 4 0 4 -15 8 -34 8 -23 0 -36 -6 -41 -17z"/>
<path d="M4560 5360 c0 -5 5 -10 10 -10 6 0 10 5 10 10 0 6 -4 10 -10 10 -5 0
-10 -4 -10 -10z"/>
<path d="M4620 5360 c0 -5 7 -10 15 -10 8 0 15 5 15 10 0 6 -7 10 -15 10 -8 0
-15 -4 -15 -10z"/>
<path d="M4690 5360 c0 -5 5 -10 10 -10 6 0 10 5 10 10 0 6 -4 10 -10 10 -5 0
-10 -4 -10 -10z"/>
<path d="M4670 4480 c0 -14 -7 -20 -23 -20 -30 0 -47 -18 -47 -51 0 -34 18
-49 55 -45 30 3 30 4 33 70 2 41 -1 66 -8 66 -5 0 -10 -9 -10 -20z m-5 -79
c-4 -13 -13 -21 -23 -19 -21 4 -27 34 -11 54 11 13 14 13 27 1 9 -9 11 -23 7
-36z"/>
<path d="M3820 4431 c0 -75 18 -90 22 -19 l3 53 22 -46 c11 -25 28 -49 37 -52
14 -5 16 3 16 58 0 41 -4 65 -11 65 -7 0 -10 -15 -7 -40 2 -22 1 -40 -3 -40
-3 0 -14 18 -24 40 -12 26 -25 40 -37 40 -15 0 -18 -8 -18 -59z"/>
<path d="M4070 4475 c0 -8 -5 -15 -11 -15 -8 0 -8 -4 -1 -13 6 -6 12 -27 14
-46 2 -19 8 -36 15 -38 8 -3 10 8 6 37 -4 30 -2 45 8 51 10 6 10 9 2 9 -7 0
-13 7 -13 15 0 8 -4 15 -10 15 -5 0 -10 -7 -10 -15z"/>
<path d="M4176 4428 c1 -62 16 -83 22 -33 3 19 9 25 28 25 13 0 24 5 24 10 0
6 -11 10 -25 10 -18 0 -25 5 -25 19 0 15 8 21 33 24 26 3 24 4 -13 5 l-45 2 1
-62z"/>
<path d="M3962 4448 c-20 -20 -15 -66 9 -78 24 -13 69 10 69 36 0 45 -49 71
-78 42z m48 -13 c16 -19 3 -57 -18 -53 -18 3 -27 30 -18 54 7 18 20 18 36 -1z"/>
<path d="M4282 4448 c-25 -25 -4 -88 29 -88 26 0 49 23 49 48 0 33 -16 52 -45
52 -12 0 -26 -5 -33 -12z m53 -34 c0 -19 -6 -30 -17 -32 -21 -4 -34 34 -17 54
18 22 34 11 34 -22z"/>
<path d="M4390 4413 c5 -46 6 -48 38 -48 32 0 32 1 32 48 0 26 -4 47 -10 47
-5 0 -10 -18 -10 -40 0 -29 -4 -40 -15 -40 -13 0 -22 38 -16 73 0 4 -5 7 -12
7 -10 0 -11 -12 -7 -47z"/>
<path d="M4492 4411 c4 -54 21 -58 28 -6 7 47 24 50 28 5 6 -58 22 -60 22 -3
l0 52 -40 -1 -41 0 3 -47z"/>
<path d="M2560 3930 c-15 -16 -39 -34 -53 -39 -14 -6 -31 -19 -36 -30 -9 -17
-6 -26 19 -54 16 -19 30 -41 30 -50 0 -23 23 -36 55 -33 30 3 30 3 27 65 -2
57 7 77 24 49 9 -14 34 18 34 43 0 11 11 19 36 23 36 7 54 30 36 48 -6 6 -19
5 -39 -5 -24 -13 -31 -13 -48 -1 -29 22 -54 17 -85 -16z"/>
<path d="M5979 3933 c-1 -5 -1 -12 0 -16 1 -5 -3 -5 -9 -2 -7 4 -14 -2 -17
-15 -5 -18 -11 -21 -32 -16 -72 17 -91 18 -91 8 0 -15 37 -39 73 -47 19 -5 27
-14 28 -29 l0 -21 9 22 c7 18 18 22 68 25 51 3 58 1 54 -14 -2 -9 1 -25 7 -35
10 -17 10 -16 11 5 0 12 5 22 11 22 7 0 9 -11 5 -32 -4 -18 -10 -51 -13 -73
l-5 -39 23 16 c13 8 26 26 29 39 3 13 13 36 24 52 18 27 18 28 -8 82 -17 37
-35 59 -52 65 -30 12 -113 13 -115 3z m84 -10 c-7 -2 -21 -2 -30 0 -10 3 -4 5
12 5 17 0 24 -2 18 -5z m74 -75 c-3 -8 -6 -5 -6 6 -1 11 2 17 5 13 3 -3 4 -12
1 -19z"/>
<path d="M3870 3644 c0 -114 3 -173 10 -169 6 4 10 73 10 176 0 106 -4 169
-10 169 -6 0 -10 -65 -10 -176z"/>
<path d="M4490 3645 c0 -149 2 -175 15 -175 13 0 15 26 15 175 0 149 -2 175
-15 175 -13 0 -15 -26 -15 -175z"/>
<path d="M4040 3750 c0 -6 32 -10 75 -10 43 0 75 4 75 10 0 6 -32 10 -75 10
-43 0 -75 -4 -75 -10z"/>
<path d="M2584 3698 c-5 -5 -20 -17 -34 -28 -14 -11 -20 -19 -13 -20 7 0 18 6
25 14 10 10 20 11 43 3 41 -14 60 -31 118 -112 29 -42 47 -60 43 -45 -3 14 -9
36 -13 49 -4 18 -3 22 7 16 9 -5 11 -4 6 4 -4 6 -11 9 -16 6 -4 -3 -10 5 -13
16 -3 12 -10 18 -16 14 -7 -4 -8 0 -4 11 4 12 3 15 -5 10 -7 -4 -10 -2 -7 6 8
24 -29 55 -71 59 -23 2 -45 1 -50 -3z m97 -25 c13 -16 12 -17 -3 -4 -17 13
-22 21 -14 21 2 0 10 -8 17 -17z"/>
<path d="M3570 3646 c0 -28 5 -46 14 -49 11 -4 15 6 18 44 2 41 0 49 -14 49
-15 0 -18 -9 -18 -44z"/>
<path d="M4780 3645 c0 -33 4 -45 15 -45 11 0 15 12 15 45 0 33 -4 45 -15 45
-11 0 -15 -12 -15 -45z"/>
<path d="M6110 3663 c-8 -4 -21 -12 -28 -20 -20 -20 -110 -14 -97 6 2 4 -12 8
-31 9 -29 1 -43 -6 -77 -40 -23 -23 -33 -35 -22 -27 18 13 19 13 7 -3 -8 -9
-19 -15 -26 -12 -6 2 -23 -8 -36 -23 l-25 -28 25 20 25 20 -18 -22 c-11 -12
-24 -20 -31 -17 -7 3 -23 -8 -36 -23 l-25 -28 25 20 25 20 -19 -22 c-10 -13
-23 -20 -28 -17 -11 7 -39 -15 -33 -26 6 -10 -14 -24 -35 -25 -8 0 -14 -4 -13
-10 1 -5 -13 -10 -30 -11 -216 -7 -332 -16 -339 -27 -15 -23 -3 -51 25 -58 15
-4 101 -9 190 -11 151 -3 166 -1 220 20 34 14 55 28 51 34 -4 6 -2 8 4 5 14
-9 43 3 36 14 -3 5 3 6 12 2 13 -5 15 -3 9 8 -6 11 -5 11 4 3 10 -9 10 -21 2
-50 -6 -22 -14 -91 -17 -154 l-7 -116 94 -32 c52 -18 111 -37 132 -44 26 -7
67 -40 136 -107 54 -53 105 -107 114 -120 9 -14 19 -23 22 -20 2 3 6 67 8 143
l4 137 45 47 c108 111 108 168 0 375 -54 105 -122 187 -156 187 -7 0 -19 7
-26 15 -13 15 -33 18 -60 8z m150 -78 c13 -14 21 -25 18 -25 -2 0 -15 11 -28
25 -13 14 -21 25 -18 25 2 0 15 -11 28 -25z m60 -90 c14 -19 14 -19 -2 -6 -10
7 -18 18 -18 24 0 6 1 8 3 6 1 -2 9 -13 17 -24z m-777 -112 c-7 -2 -19 -2 -25
0 -7 3 -2 5 12 5 14 0 19 -2 13 -5z m-150 -60 c-13 -2 -33 -2 -45 0 -13 2 -3
4 22 4 25 0 35 -2 23 -4z m220 -10 c-7 -2 -21 -2 -30 0 -10 3 -4 5 12 5 17 0
24 -2 18 -5z m700 -84 c3 -10 2 -17 -3 -14 -4 3 -11 -3 -14 -12 -10 -24 -23
-4 -31 47 l-7 45 25 -23 c14 -13 27 -32 30 -43z m37 -142 c0 -2 -10 -12 -22
-23 l-23 -19 19 23 c18 21 26 27 26 19z"/>
<path d="M3400 3651 c-67 -21 -149 -88 -135 -110 3 -7 1 -10 -5 -9 -12 3 -41
-68 -53 -130 -6 -32 -5 -33 21 -30 29 3 28 2 20 93 -2 24 1 31 19 33 12 2 34
20 49 40 l27 37 -29 -25 -29 -25 23 26 c13 15 31 26 40 25 9 0 16 5 14 12 -1
8 2 11 7 8 5 -4 29 -1 54 5 38 11 43 15 39 36 -5 24 -18 27 -62 14z m-80 -54
c0 -2 -12 -14 -27 -28 l-28 -24 24 28 c23 25 31 32 31 24z"/>
<path d="M2506 3613 c-8 -16 -24 -61 -36 -102 -25 -81 -22 -90 35 -91 17 0 41
-3 54 -7 23 -6 21 -2 -17 52 -46 63 -52 97 -27 145 9 17 13 30 11 30 -3 0 -12
-12 -20 -27z"/>
<path d="M2815 3530 c10 -11 20 -20 23 -20 3 0 -3 9 -13 20 -10 11 -20 20 -23
20 -3 0 3 -9 13 -20z"/>
<path d="M4040 3540 c0 -6 32 -10 75 -10 43 0 75 4 75 10 0 6 -32 10 -75 10
-43 0 -75 -4 -75 -10z"/>
<path d="M2777 3491 c-4 -17 -3 -21 5 -13 5 5 8 16 6 23 -3 8 -7 3 -11 -10z"/>
<path d="M2857 3489 c12 -15 73 -53 73 -46 0 2 -19 17 -42 32 -24 16 -38 22
-31 14z"/>
<path d="M3118 3433 c6 -2 18 -2 25 0 6 3 1 5 -13 5 -14 0 -19 -2 -12 -5z"/>
<path d="M3058 3423 c6 -2 18 -2 25 0 6 3 1 5 -13 5 -14 0 -19 -2 -12 -5z"/>
<path d="M3018 3413 c7 -3 16 -2 19 1 4 3 -2 6 -13 5 -11 0 -14 -3 -6 -6z"/>
<path d="M3155 3399 c-34 -21 -29 -25 10 -7 14 6 25 15 25 20 0 10 1 10 -35
-13z"/>
<path d="M3090 3370 c-8 -5 -10 -10 -5 -10 6 0 17 5 25 10 8 5 11 10 5 10 -5
0 -17 -5 -25 -10z"/>
<path d="M2895 3346 c17 -8 48 -15 70 -14 39 0 39 1 -10 8 -27 4 -59 11 -70
14 -11 4 -6 0 10 -8z"/>
<path d="M3018 3343 c7 -3 16 -2 19 1 4 3 -2 6 -13 5 -11 0 -14 -3 -6 -6z"/>
<path d="M2430 3310 c0 -17 7 -30 18 -35 16 -6 214 -24 272 -25 l25 0 -32 32
c-31 31 -36 32 -125 35 -51 1 -108 6 -125 12 -32 9 -33 9 -33 -19z m17 -12
c-3 -8 -6 -5 -6 6 -1 11 2 17 5 13 3 -3 4 -12 1 -19z"/>
<path d="M3151 3217 c-12 -27 -18 -53 -15 -58 3 -5 0 -8 -7 -7 -6 2 -14 -3
-17 -11 -3 -9 0 -11 9 -6 8 5 11 4 6 -1 -5 -5 -14 -9 -20 -9 -7 0 -11 -8 -11
-17 1 -9 -13 -29 -30 -45 l-31 -28 30 34 30 34 -42 -33 c-23 -18 -40 -36 -38
-40 3 -4 -3 -14 -13 -21 -16 -13 -16 -13 -2 5 14 18 14 19 -7 8 -12 -7 -25
-17 -29 -24 -5 -7 -3 -8 6 -3 9 5 11 4 6 -4 -4 -6 -11 -9 -16 -6 -13 8 -41 -6
-33 -18 3 -5 1 -7 -5 -4 -15 10 -43 -3 -35 -17 4 -6 -11 4 -33 23 -48 41 -58
57 -43 67 8 5 9 3 4 -7 -7 -12 -6 -11 9 0 18 15 18 43 0 133 l-5 27 -57 -22
c-76 -29 -202 -29 -284 0 l-58 20 0 -73 c0 -75 6 -107 20 -99 4 2 6 -6 5 -18
-1 -12 -3 -42 -4 -66 l-1 -44 -98 6 c-55 4 -168 17 -253 28 -278 39 -494 28
-674 -33 -85 -29 -177 -77 -170 -88 3 -5 0 -7 -8 -4 -7 2 -25 -5 -38 -16 -13
-12 -18 -18 -10 -14 9 4 12 3 7 -4 -4 -6 -13 -9 -20 -6 -7 3 -19 -3 -27 -12
-12 -15 -12 -17 0 -9 9 5 12 4 7 -3 -4 -6 -12 -9 -19 -6 -15 6 -162 -141 -153
-154 3 -5 -2 -16 -12 -23 -16 -13 -16 -12 -2 6 15 20 15 20 -8 1 -12 -11 -20
-26 -18 -33 3 -7 0 -15 -6 -19 -7 -5 -8 -2 -3 7 8 12 6 12 -8 0 -20 -16 -23
-36 -5 -25 8 4 10 3 5 -2 -5 -5 -14 -9 -20 -9 -7 0 -11 -8 -11 -18 1 -9 -2
-14 -7 -12 -11 8 -31 -33 -23 -47 4 -7 3 -8 -4 -4 -14 8 -56 -70 -46 -86 4 -7
3 -8 -4 -4 -7 4 -23 -16 -41 -52 -16 -32 -48 -82 -71 -110 -22 -29 -39 -56
-36 -61 3 -4 -7 -19 -22 -32 l-27 -24 25 30 25 30 -32 -29 c-18 -16 -30 -33
-27 -37 2 -4 -1 -11 -7 -15 -8 -4 -9 -3 -5 4 11 18 -10 14 -25 -4 -8 -9 -44
-38 -81 -64 -37 -26 -64 -51 -60 -55 4 -5 1 -5 -5 -1 -17 9 -55 -12 -47 -26 4
-6 3 -8 -3 -5 -15 10 -114 -33 -106 -46 3 -6 1 -7 -5 -3 -6 4 -45 -5 -87 -20
-65 -23 -75 -30 -75 -50 0 -13 5 -24 10 -24 20 0 204 72 273 107 37 18 65 38
62 43 -4 6 1 7 11 3 11 -4 15 -2 11 4 -4 6 1 10 10 9 10 0 18 4 18 11 0 6 4
15 9 20 5 5 6 3 2 -4 -12 -21 7 -14 39 15 17 15 24 23 15 17 -13 -9 -13 -8 -1
7 7 10 18 15 23 12 13 -8 140 117 134 133 -3 6 3 17 12 25 16 12 16 11 2 -7
-15 -20 -14 -20 8 -1 23 20 31 43 10 30 -7 -4 -8 -3 -4 5 4 6 11 9 16 6 12 -7
33 32 25 45 -4 6 -1 9 7 8 7 -2 12 5 12 14 -1 10 1 16 5 13 11 -6 52 85 45 97
-4 7 -2 8 4 4 14 -8 35 30 26 47 -4 6 -4 9 1 5 11 -10 38 29 30 42 -4 6 -1 9
7 8 7 -2 13 5 13 14 0 9 4 20 9 25 5 5 6 2 2 -7 -5 -8 3 -1 18 15 24 29 27 34
30 54 0 5 5 13 10 18 5 5 6 2 1 -7 -10 -19 -3 -11 80 80 l59 65 -64 -60 -65
-60 59 62 c32 34 64 60 70 58 6 -3 27 10 46 27 19 17 28 27 20 23 -9 -5 -12
-4 -7 1 5 5 16 9 25 9 9 0 16 6 14 13 -1 8 2 11 7 7 11 -6 114 48 107 56 -2 2
5 5 17 6 12 0 59 13 104 27 102 31 272 50 378 42 44 -4 150 -16 235 -27 85
-11 201 -22 257 -26 99 -6 102 -7 108 -32 10 -40 100 -252 170 -397 l62 -131
-67 -134 c-72 -143 -191 -482 -175 -497 22 -22 175 -41 175 -22 0 17 -37 29
-74 23 -50 -8 -47 7 16 76 69 75 192 242 252 341 50 81 76 157 76 217 0 36 10
42 30 18 10 -12 3 -36 -35 -127 -56 -132 -141 -371 -148 -413 -3 -17 -8 -47
-12 -67 -4 -21 -3 -39 1 -39 5 -1 18 -3 29 -4 11 -2 33 -8 48 -14 35 -14 97
-14 97 -1 0 16 -40 32 -65 26 -25 -6 -55 1 -55 14 0 4 30 45 68 91 141 176
296 445 307 534 17 131 -48 310 -186 516 l-65 96 31 9 c16 5 29 15 28 21 -2 7
3 10 10 8 6 -3 23 5 37 16 l25 21 -30 -16 -30 -17 23 20 c13 11 28 18 35 15
17 -6 111 91 102 105 -4 7 -1 10 7 9 7 -2 12 5 12 14 -1 10 2 16 6 13 6 -4 60
104 60 119 0 2 -11 6 -24 8 -22 4 -27 -1 -45 -45z m22 -52 c-3 -9 -8 -14 -10
-11 -3 3 -2 9 2 15 9 16 15 13 8 -4z m-736 -92 c-2 -21 -4 -6 -4 32 0 39 2 55
4 38 2 -18 2 -50 0 -70z m390 -15 c-3 -8 -6 -5 -6 6 -1 11 2 17 5 13 3 -3 4
-12 1 -19z m293 19 c0 -2 -15 -16 -32 -33 l-33 -29 29 33 c28 30 36 37 36 29z
m-175 -137 c-3 -5 -12 -10 -18 -10 -7 0 -6 4 3 10 19 12 23 12 15 0z m-1282
-17 c-7 -2 -19 -2 -25 0 -7 3 -2 5 12 5 14 0 19 -2 13 -5z m290 0 c-7 -2 -21
-2 -30 0 -10 3 -4 5 12 5 17 0 24 -2 18 -5z m-366 -9 c-3 -3 -12 -4 -19 -1 -8
3 -5 6 6 6 11 1 17 -2 13 -5z m450 0 c-3 -3 -12 -4 -19 -1 -8 3 -5 6 6 6 11 1
17 -2 13 -5z m-364 -11 c-7 -2 -21 -2 -30 0 -10 3 -4 5 12 5 17 0 24 -2 18 -5z
m260 0 c-7 -2 -19 -2 -25 0 -7 3 -2 5 12 5 14 0 19 -2 13 -5z m170 0 c-7 -2
-19 -2 -25 0 -7 3 -2 5 12 5 14 0 19 -2 13 -5z m-86 -9 c-3 -3 -12 -4 -19 -1
-8 3 -5 6 6 6 11 1 17 -2 13 -5z m76 -11 c-7 -2 -19 -2 -25 0 -7 3 -2 5 12 5
14 0 19 -2 13 -5z m190 0 c-7 -2 -21 -2 -30 0 -10 3 -4 5 12 5 17 0 24 -2 18
-5z m-110 -10 c-7 -2 -19 -2 -25 0 -7 3 -2 5 12 5 14 0 19 -2 13 -5z m240 0
c-13 -2 -33 -2 -45 0 -13 2 -3 4 22 4 25 0 35 -2 23 -4z m-1023 -13 c-8 -5
-19 -10 -25 -10 -5 0 -3 5 5 10 8 5 20 10 25 10 6 0 3 -5 -5 -10z m857 4 c-3
-3 -12 -4 -19 -1 -8 3 -5 6 6 6 11 1 17 -2 13 -5z m151 -11 c-10 -2 -26 -2
-35 0 -10 3 -2 5 17 5 19 0 27 -2 18 -5z m-1078 -47 c0 -2 -7 -7 -16 -10 -8
-3 -12 -2 -9 4 6 10 25 14 25 6z m-130 -80 c0 -2 -8 -10 -17 -17 -16 -13 -17
-12 -4 4 13 16 21 21 21 13z m-70 -19 c0 -1 -26 -27 -57 -57 l-58 -55 55 58
c50 53 60 62 60 54z m-357 -508 c-10 -17 -24 -36 -32 -42 -8 -7 -2 7 14 31 32
49 45 57 18 11z m-43 -62 c0 -2 -10 -12 -22 -23 l-23 -19 19 23 c18 21 26 27
26 19z m-30 -80 c0 -2 -19 -21 -42 -42 l-43 -40 40 43 c36 39 45 47 45 39z
m-120 -70 c0 -2 -10 -12 -22 -23 l-23 -19 19 23 c18 21 26 27 26 19z m-150
-141 c0 -2 -7 -7 -16 -10 -8 -3 -12 -2 -9 4 6 10 25 14 25 6z"/>
<path d="M5790 2966 c0 -24 -9 -82 -20 -127 -68 -286 -64 -957 6 -1106 21 -43
12 -79 -21 -87 -14 -4 -30 -4 -36 0 -5 3 -22 -2 -36 -11 -18 -12 -22 -19 -13
-25 13 -8 88 6 105 20 5 4 21 10 35 12 18 2 27 12 35 39 5 20 15 42 22 50 14
17 31 179 39 372 5 120 12 165 46 297 22 85 43 159 48 164 9 9 13 -18 28 -185
6 -65 17 -123 29 -150 35 -77 362 -469 392 -469 20 0 33 -22 25 -43 -2 -7 -18
-21 -34 -30 -29 -17 -48 -53 -35 -65 4 -4 34 22 66 58 45 49 58 70 54 85 -4
11 -6 32 -6 47 2 52 -105 245 -230 414 l-67 91 13 64 c7 35 21 112 30 171 l18
106 -24 34 c-31 44 -135 153 -181 190 -32 25 -41 27 -58 18 -18 -9 -26 -8 -42
7 -11 10 -24 27 -28 38 -7 19 -36 31 -142 61 -15 5 -18 -2 -18 -40z"/>
</g>
</svg>
