<?xml version="1.0" standalone="no"?>
<!DOCTYPE svg PUBLIC "-//W3C//DTD SVG 20010904//EN"
 "http://www.w3.org/TR/2001/REC-SVG-20010904/DTD/svg10.dtd">
<svg version="1.0" xmlns="http://www.w3.org/2000/svg"
 width="30.000000pt" height="30.000000pt" viewBox="0 0 30.000000 30.000000"
 preserveAspectRatio="xMidYMid meet">

<g transform="translate(0.000000,30.000000) scale(0.100000,-0.100000)"
fill="#000000" stroke="none">
<path d="M20 231 c0 -10 30 -24 37 -17 3 3 2 9 -2 15 -8 13 -35 15 -35 2z"/>
<path d="M78 216 c-14 -32 -4 -56 22 -56 11 0 23 7 27 16 7 18 -12 64 -27 64
-6 0 -15 -11 -22 -24z"/>
<path d="M163 232 c-43 -6 -23 -20 30 -20 56 -1 87 5 87 16 0 7 -77 10 -117 4z"/>
<path d="M20 181 c0 -5 7 -12 16 -15 22 -9 24 -8 18 9 -7 16 -34 21 -34 6z"/>
<path d="M159 178 c-31 -12 -23 -16 34 -16 56 -1 87 5 87 16 0 9 -96 9 -121 0z"/>
<path d="M20 128 c0 -11 32 -17 83 -16 45 1 79 17 40 19 -82 4 -123 3 -123 -3z"/>
<path d="M240 131 c-17 -5 -21 -9 -12 -15 15 -9 52 1 52 15 0 10 -4 10 -40 0z"/>
<path d="M168 106 c-6 -14 -8 -32 -5 -40 8 -21 46 -21 54 0 7 18 -12 64 -27
64 -6 0 -15 -11 -22 -24z"/>
<path d="M20 78 c0 -11 32 -18 78 -16 24 1 41 7 39 13 -4 11 -117 14 -117 3z"/>
<path d="M245 79 c-4 -6 -5 -12 -2 -15 7 -7 37 7 37 17 0 13 -27 11 -35 -2z"/>
</g>
</svg>
