<?xml version="1.0" standalone="no"?>
<!DOCTYPE svg PUBLIC "-//W3C//DTD SVG 20010904//EN"
 "http://www.w3.org/TR/2001/REC-SVG-20010904/DTD/svg10.dtd">
<svg version="1.0" xmlns="http://www.w3.org/2000/svg"
 width="30.000000pt" height="30.000000pt" viewBox="0 0 30.000000 30.000000"
 preserveAspectRatio="xMidYMid meet">

<g transform="translate(0.000000,30.000000) scale(0.100000,-0.100000)"
fill="#000000" stroke="none">
<path d="M107 263 c-4 -3 -7 -25 -7 -48 0 -23 -7 -50 -15 -61 -37 -48 3 -124
65 -124 62 0 102 76 65 124 -12 16 -12 22 -2 28 9 6 9 10 -3 18 -12 8 -13 12
-1 19 24 15 -17 51 -60 51 -19 0 -39 -3 -42 -7z m73 -53 c0 -23 7 -52 16 -65
21 -32 11 -72 -21 -87 -55 -25 -105 35 -71 87 9 13 16 42 16 65 0 38 2 40 30
40 28 0 30 -2 30 -40z"/>
<path d="M140 186 c0 -18 -7 -39 -15 -46 -34 -28 6 -87 43 -64 23 15 27 48 7
64 -8 7 -15 28 -15 46 0 19 -4 34 -10 34 -5 0 -10 -15 -10 -34z"/>
</g>
</svg>
