<?xml version="1.0" encoding="iso-8859-1"?>
<!-- Uploaded to: SVG Repo, www.svgrepo.com, Generator: SVG Repo Mixer Tools -->
<svg fill="#000000" height="800px" width="800px" version="1.1" id="Layer_1" xmlns="http://www.w3.org/2000/svg" xmlns:xlink="http://www.w3.org/1999/xlink" 
	 viewBox="0 0 511.889 511.889" xml:space="preserve">
<g transform="translate(0 -1)">
	<g>
		<g>
			<path d="M282.202,353.512l-14.182-10.214c-2.227-1.613-3.541-4.181-3.541-6.929V282.6c0-9.404-7.663-17.067-17.067-17.067
				c-9.412,0-17.067,7.663-17.067,17.067v53.769c0,2.748-1.314,5.316-3.541,6.929l-14.182,10.214
				c-15.676,11.29-24.772,28.757-24.934,47.898c-0.282,31.462,25.984,59.042,57.361,60.237l2.441,0.043
				c15.88,0,30.882-6.212,42.163-17.493s17.493-26.283,17.493-42.24C307.145,382.867,297.818,364.759,282.202,353.512z"/>
			<path d="M315.68,314.634V69.267C315.68,31.626,285.053,1,247.413,1c-37.641,0-68.267,30.626-68.267,68.267V77.8h68.267
				c4.71,0,8.533,3.823,8.533,8.533c0,4.719-3.823,8.533-8.533,8.533h-68.267v17.067h42.667c4.71,0,8.533,3.823,8.533,8.533
				c0,4.719-3.823,8.533-8.533,8.533h-42.667v17.067h68.267c4.71,0,8.533,3.823,8.533,8.533c0,4.719-3.823,8.533-8.533,8.533
				h-68.267V180.2h42.667c4.71,0,8.533,3.823,8.533,8.533c0,4.719-3.823,8.533-8.533,8.533h-42.667v17.067h68.267
				c4.71,0,8.533,3.823,8.533,8.533c0,4.719-3.823,8.533-8.533,8.533h-68.267v83.234c-26.496,20.753-42.359,52.693-42.658,86.323
				c-0.538,59.418,47.3,109.602,106.624,111.846c1.459,0.06,2.901,0.085,4.352,0.085c28.851,0,56.013-10.923,76.877-31.019
				c21.931-21.112,34.005-49.493,34.005-79.915C358.346,367.925,342.466,335.609,315.68,314.634z M301.719,456.262
				c-14.498,14.507-33.783,22.494-54.298,22.494c-0.009,0-2.005-0.017-3.012-0.06h-0.009c-40.354-1.527-74.146-36.992-73.779-77.431
				c0.213-24.636,11.878-47.095,32.017-61.602l10.641-7.663V282.6c0-18.825,15.309-34.133,34.133-34.133
				c18.825,0,34.133,15.309,34.133,34.133v49.399l10.641,7.663c20.045,14.447,32.026,37.743,32.026,62.293
				C324.213,422.47,316.226,441.764,301.719,456.262z"/>
			<path d="M452.211,303.937c-14.114,0-25.6-11.486-25.6-25.6c0-4.719-3.814-8.533-8.533-8.533c-4.719,0-8.533,3.814-8.533,8.533
				c0,14.114-11.486,25.6-25.6,25.6c-4.719,0-8.533,3.814-8.533,8.533c0,4.719,3.814,8.533,8.533,8.533
				c14.114,0,25.6,11.486,25.6,25.6c0,4.719,3.814,8.533,8.533,8.533c4.719,0,8.533-3.814,8.533-8.533
				c0-14.114,11.486-25.6,25.6-25.6c4.719,0,8.533-3.814,8.533-8.533C460.745,307.751,456.93,303.937,452.211,303.937z
				 M418.078,321.029c-2.432-3.243-5.316-6.127-8.559-8.559c3.243-2.432,6.127-5.316,8.559-8.559
				c2.432,3.243,5.316,6.127,8.559,8.559C423.394,314.902,420.51,317.786,418.078,321.029z"/>
			<path d="M383.945,43.67c0-4.719-3.814-8.533-8.533-8.533h-8.533v-8.533c0-4.719-3.814-8.533-8.533-8.533
				c-4.719,0-8.533,3.814-8.533,8.533v8.533h-8.533c-4.719,0-8.533,3.814-8.533,8.533s3.814,8.533,8.533,8.533h8.533v8.533
				c0,4.719,3.814,8.533,8.533,8.533c4.719,0,8.533-3.814,8.533-8.533v-8.533h8.533C380.13,52.203,383.945,48.389,383.945,43.67z"/>
			<path d="M142.511,71.77l-25.6-25.6h-12.066l-25.6,25.6v12.066l25.6,25.6h12.066l25.6-25.6V71.77z M110.878,91.337L97.344,77.803
				l13.534-13.534l13.534,13.534L110.878,91.337z"/>
			<circle cx="59.678" cy="325.27" r="8.533"/>
		</g>
	</g>
</g>
</svg>